<svg xmlns="http://www.w3.org/2000/svg" viewBox="0 0 313.11 193.15"><defs><style>.cls-1{isolation:isolate;}.cls-2,.cls-6{fill:#f9a467;}.cls-3{fill:#5e2c00;}.cls-4,.cls-5{fill:#fed095;}.cls-5{mix-blend-mode:screen;}.cls-6{opacity:0.5;mix-blend-mode:multiply;}</style></defs><g class="cls-1"><g id="Layer_1" data-name="Layer 1"><rect class="cls-2" x="108.38" y="1.18" width="163.61" height="160.68"/><path class="cls-3" d="M281.89,171.09H118.28a1.18,1.18,0,0,1-1.19-1.18V9.23A1.19,1.19,0,0,1,118.28,8H281.89a1.18,1.18,0,0,1,1.18,1.19V169.91A1.18,1.18,0,0,1,281.89,171.09Zm-162.43-2.36H280.7V10.41H119.46Z" transform="translate(-9.9 -8.04)"/><polygon class="cls-4" points="33.16 191.97 108.38 161.87 108.38 1.18 33.16 31.29 33.16 191.97"/><path class="cls-3" d="M43.06,201.2a1.16,1.16,0,0,1-.67-.21,1.19,1.19,0,0,1-.52-1V39.33a1.17,1.17,0,0,1,.75-1.1l75.22-30.1a1.18,1.18,0,0,1,1.62,1.1V169.91a1.18,1.18,0,0,1-.74,1.1L43.5,201.11A1.19,1.19,0,0,1,43.06,201.2ZM44.24,40.13V198.26l72.85-29.15V11Z" transform="translate(-9.9 -8.04)"/><rect class="cls-4" x="33.16" y="31.29" width="163.61" height="160.68"/><path class="cls-3" d="M206.67,201.2H43.06A1.19,1.19,0,0,1,41.87,200V39.33a1.18,1.18,0,0,1,1.19-1.18H206.67a1.18,1.18,0,0,1,1.18,1.18V200A1.18,1.18,0,0,1,206.67,201.2ZM44.24,198.83H205.49V40.51H44.24Z" transform="translate(-9.9 -8.04)"/><polygon class="cls-5" points="192.06 188.44 37.38 188.44 37.38 95.14 43.97 181.33 192.06 188.44"/><polygon class="cls-6" points="162.6 107.13 33.16 107.13 33.16 31.29 196.77 31.29 162.6 107.13"/><polygon class="cls-2" points="196.77 191.97 271.99 161.87 271.99 1.18 196.77 31.29 196.77 191.97"/><path class="cls-3" d="M206.67,201.2A1.16,1.16,0,0,1,206,201a1.18,1.18,0,0,1-.51-1V39.33a1.17,1.17,0,0,1,.74-1.1l75.22-30.1a1.18,1.18,0,0,1,1.62,1.1V169.91a1.18,1.18,0,0,1-.74,1.1l-75.22,30.1A1.12,1.12,0,0,1,206.67,201.2Zm1.18-161.07V198.26l72.85-29.15V11Z" transform="translate(-9.9 -8.04)"/><polygon class="cls-6" points="235.94 96.58 271.99 75.78 271.99 1.18 196.77 31.29 235.94 96.58"/><rect class="cls-6" x="108.38" y="12.41" width="163.61" height="18.88"/><polygon class="cls-6" points="108.38 41.94 108.38 12.41 34.6 41.94 108.38 41.94"/><polygon class="cls-2" points="198.64 31.29 243.78 84.56 311.93 42.87 271.99 1.18 198.64 31.29"/><path class="cls-3" d="M253.68,93.78a1.17,1.17,0,0,1-.9-.41L207.64,40.09a1.16,1.16,0,0,1-.25-1,1.2,1.2,0,0,1,.7-.82l73.35-30.1a1.17,1.17,0,0,1,1.3.28l39.94,41.68a1.18,1.18,0,0,1,.32,1,1.16,1.16,0,0,1-.55.85L254.3,93.61A1.16,1.16,0,0,1,253.68,93.78Zm-43.18-54,43.43,51.26,66-40.39-38.37-40Z" transform="translate(-9.9 -8.04)"/><polygon class="cls-4" points="33.16 31.29 1.18 91.14 158.92 92.55 196.77 31.29 33.16 31.29"/><path class="cls-3" d="M168.82,101.78h0L11.07,100.37a1.2,1.2,0,0,1-1-.58,1.17,1.17,0,0,1,0-1.16L42,38.77a1.2,1.2,0,0,1,1.05-.62H206.67a1.17,1.17,0,0,1,1,1.8l-37.84,61.26A1.2,1.2,0,0,1,168.82,101.78ZM13.05,98,168.17,99.4l36.38-58.89H43.76Z" transform="translate(-9.9 -8.04)"/><polygon class="cls-5" points="35.6 34.89 8.47 85.68 39.39 39.84 179.46 34.89 35.6 34.89"/></g></g></svg>